<?xml version="1.0" encoding="UTF-8" standalone="no"?>
<svg
   viewBox="60 8 84.5 135.49016"
   font-family="'Segoe UI', 'Helvetica Neue', Arial, sans-serif"
   version="1.1"
   id="svg33"
   sodipodi:docname="madhirsch_logo_F1.svg"
   inkscape:version="1.4.3 (0d15f75, 2025-12-25)"
   width="84.5"
   height="135.49016"
   xmlns:inkscape="http://www.inkscape.org/namespaces/inkscape"
   xmlns:sodipodi="http://sodipodi.sourceforge.net/DTD/sodipodi-0.dtd"
   xmlns="http://www.w3.org/2000/svg"
   xmlns:svg="http://www.w3.org/2000/svg">
  <defs
     id="defs33">
    <linearGradient
       id="gold"
       x1="0"
       y1="0"
       x2="1"
       y2="1">
      <stop
         offset="0%"
         stop-color="#f8e7a1"
         id="stop1" />
      <stop
         offset="50%"
         stop-color="#d4a93a"
         id="stop2" />
      <stop
         offset="100%"
         stop-color="#b9851d"
         id="stop3" />
    </linearGradient>
  </defs>
  <sodipodi:namedview
     id="namedview33"
     pagecolor="#ffffff"
     bordercolor="#000000"
     borderopacity="0.25"
     inkscape:showpageshadow="2"
     inkscape:pageopacity="0.0"
     inkscape:pagecheckerboard="0"
     inkscape:deskcolor="#d1d1d1"
     inkscape:zoom="2.7057957"
     inkscape:cx="99.231439"
     inkscape:cy="106.2534"
     inkscape:window-width="2544"
     inkscape:window-height="926"
     inkscape:window-x="8"
     inkscape:window-y="25"
     inkscape:window-maximized="0"
     inkscape:current-layer="g10" />
  <!-- ===== DEER HEAD — CRAZY EDITION ===== -->
  <g
     transform="translate(100.25,106.25)"
     id="g31">
    <!-- Left antler — wilder, asymmetric -->
    <g
       stroke="#1e293b"
       stroke-width="4.5"
       stroke-linecap="round"
       stroke-linejoin="round"
       fill="none"
       id="g10">
      <!-- Left main beam — curvy/wonky -->
      <path
         d="m -10,-22 q -8,-18 -4,-36 4,-10 -2,-20"
         id="path1" />
      <!-- Left tine (swoops outward) -->
      <path
         d="M -15.557093,-40 C -24.890427,-42.666667 -30,-41.333333 -34,-36"
         id="path2"
         sodipodi:nodetypes="cc" />
      <!-- Left upper tine (wild angle) -->
      <path
         d="m -14,-58 q -18,-2 -24,6"
         id="path3" />
      <!-- Left crown — goes crooked -->
      <path
         d="m -16,-78 q -10,-10 -6,-18"
         id="path4" />
      <path
         d="M -16,-78 Q -6,-90 -4,-96"
         id="path5" />
      <!-- Right main beam — different curve for asymmetry -->
      <path
         d="m 10,-22 q 10,-16 12,-34 2,-10 -4,-20"
         id="path6" />
      <!-- Right tine -->
      <path
         d="M 18.766729,-38 C 28.100062,-39.333333 31.333333,-37.333333 34,-32"
         id="path7"
         sodipodi:nodetypes="cc" />
      <!-- Right upper tine -->
      <path
         d="M 23.038062,-56 C 33.704729,-54.666667 39.333333,-51.333333 42,-46"
         id="path8"
         sodipodi:nodetypes="cc" />
      <!-- Right crown — leans the other way -->
      <path
         d="M 18,-76 Q 28,-86 32,-92"
         id="path9" />
      <path
         d="M 18,-76 Q 10,-88 12,-96"
         id="path10" />
    </g>
    <!-- Small stars / sparks around the head (seeing stars = crazy) -->
    <!-- Deer head silhouette -->
    <g
       fill="#1e293b"
       id="g16">
      <ellipse
         cx="0"
         cy="-6"
         rx="18"
         ry="22"
         id="ellipse15" />
      <!-- Snout -->
      <ellipse
         cx="0"
         cy="18"
         rx="11"
         ry="9"
         id="ellipse16" />
    </g>
    <!-- Ears — one perked, one floppy (crazy asymmetry) -->
    <!-- Left ear: perked up alert -->
    <ellipse
       cx="-18"
       cy="-20"
       rx="6"
       ry="11"
       transform="rotate(-25,-18,-20)"
       fill="#1e293b"
       id="ellipse17" />
    <ellipse
       cx="-18"
       cy="-19"
       rx="3"
       ry="7"
       transform="rotate(-25,-18,-19)"
       fill="#475569"
       id="ellipse18" />
    <!-- Right ear: floppy / drooping (the "mad" touch) -->
    <ellipse
       cx="20"
       cy="-12"
       rx="6"
       ry="10"
       transform="rotate(50,20,-12)"
       fill="#1e293b"
       id="ellipse19" />
    <ellipse
       cx="20"
       cy="-11"
       rx="3"
       ry="6"
       transform="rotate(50,20,-11)"
       fill="#475569"
       id="ellipse20" />
    <!-- CRAZY EYES -->
    <!-- Left eye: spiral / swirl (the classic cartoon crazy eye) -->
    <circle
       cx="-7"
       cy="-10"
       r="6"
       fill="#ffffff"
       stroke="#1e293b"
       stroke-width="0.5"
       id="circle20" />
    <g
       transform="translate(-7,-10)"
       stroke="#dc2626"
       stroke-width="1.3"
       fill="none"
       stroke-linecap="round"
       id="g20">
      <path
         d="M 0,-3.5 C 1.9329966,-3.5 3.5,-1.9329966 3.5,0 3.5262391,1.8735983 1.8124799,2.9618496 0.03506311,2.9649369 -1.6129147,2.9368976 -2.9432145,1.5747265 -2.8422672,0.03506311 -2.7419025,-1.1014048 -1.4088728,-1.9825999 -0.2394588,-1.7043956 0.37484651,-1.5894786 1.5896209,-0.67358553 0.8,0.31556802"
         id="path20"
         sodipodi:nodetypes="cccccc" />
    </g>
    <!-- Right eye: big, dilated, looking up-and-away -->
    <circle
       cx="8"
       cy="-10"
       r="6.5"
       fill="#ffffff"
       stroke="#1e293b"
       stroke-width="0.5"
       id="circle21" />
    <circle
       cx="9.5"
       cy="-12"
       r="3.5"
       fill="#1e293b"
       id="circle22" />
    <circle
       cx="10.5"
       cy="-13"
       r="1"
       fill="#ffffff"
       id="circle23" />
    <!-- Twitching under-eye line -->
    <!-- Raised/crooked eyebrows for manic expression -->
    <!-- Left eyebrow: high, arched (surprised/manic) -->
    <path
       d="m -12,-19 q 5,-5 10,1"
       stroke="#1e293b"
       stroke-width="2.5"
       fill="none"
       stroke-linecap="round"
       id="path24" />
    <!-- Right eyebrow: lower, angled (creates asymmetric crazy look) -->
    <path
       d="m 4,-17 q 5,-3 10,1"
       stroke="#1e293b"
       stroke-width="2.5"
       fill="none"
       stroke-linecap="round"
       id="path25" />
    <!-- Nose -->
    <ellipse
       cx="0"
       cy="18"
       rx="5.5"
       ry="4"
       fill="#334155"
       id="ellipse25" />
    <circle
       cx="-2"
       cy="18.5"
       r="1.2"
       fill="#1e293b"
       id="circle25" />
    <circle
       cx="2"
       cy="18.5"
       r="1.2"
       fill="#1e293b"
       id="circle26" />
    <!-- TONGUE sticking out to the side — the ultimate "crazy" touch -->
    <g
       id="g27">
      <path
         d="m 4,24 c 4,2.666667 6.561403,5.087719 9.22807,9.087719 1.333333,2.666667 0.413029,4.310783 -1.578947,4.140351 C 9.0908193,37.009184 7.6140351,35.087719 6,32 4.6666667,29.333333 4,26.666667 4,24 Z"
         fill="#f87171"
         id="path26"
         sodipodi:nodetypes="ccscc" />
    </g>
    <!-- Big goofy grin -->
    <path
       d="m -6.0425532,22.531915 c 3.5792599,3.912855 8.9764583,4.026819 11,0"
       stroke="#334155"
       stroke-width="1.5"
       fill="none"
       stroke-linecap="round"
       id="path28"
       sodipodi:nodetypes="cc" />
    <!-- Swirl/dizzy marks around head -->
  </g>
  <!-- ===== WORDMARK ===== -->
  <!-- Tiny "est. crazy since forever" tagline -->
</svg>
